<svg xmlns="http://www.w3.org/2000/svg" width="1000" height="1000" viewBox="0 0 1000 1000"><title>linkedin</title><path d="M921.73,5H78.06C37.74,5,5,37,5,76.34V923.57C5,963,37.74,995,78.06,995H921.73c40.38,0,73.28-32,73.28-71.43V76.34C995,37,962.12,5,921.73,5ZM298.62,848.61H151.76V376.15H298.62V848.61Zm-73.4-537a85.13,85.13,0,1,1,85.1-85.16A85.15,85.15,0,0,1,225.22,311.57Zm623.38,537H701.87V618.85c0-54.79-1-125.26-76.31-125.26-76.4,0-88.13,59.68-88.13,121.3V848.61H390.72V376.15H531.55v64.56h2c19.6-37.14,67.51-76.3,138.94-76.3,148.69,0,176.15,97.86,176.15,225.06V848.61Z"/></svg>