<?xml version="1.0" standalone="no"?>
<!DOCTYPE svg PUBLIC "-//W3C//DTD SVG 20010904//EN"
 "http://www.w3.org/TR/2001/REC-SVG-20010904/DTD/svg10.dtd">
<svg version="1.0" xmlns="http://www.w3.org/2000/svg"
 width="672.000000pt" height="720.000000pt" viewBox="0 0 672.000000 720.000000"
 preserveAspectRatio="xMidYMid meet">
<metadata>
Created by potrace 1.13, written by Peter Selinger 2001-2015
</metadata>
<g transform="translate(0.000000,720.000000) scale(0.100000,-0.100000)"
fill="#000000" stroke="none">
<path d="M5857 7160 c-46 -54 -97 -153 -135 -260 -26 -74 -37 -119 -58 -227
-6 -30 -72 -63 -140 -70 -32 -4 -91 1 -148 12 -76 14 -98 16 -110 6 -13 -11
-15 -8 -13 16 1 17 -3 27 -10 26 -6 -1 -25 21 -41 50 -34 59 -171 197 -341
343 l-114 98 -19 -23 c-10 -13 -28 -55 -41 -95 -31 -98 -30 -303 1 -501 12
-77 23 -152 24 -167 3 -35 11 -35 27 -2 19 42 25 20 8 -30 -16 -46 -12 -57 11
-34 7 7 5 -6 -5 -30 -12 -31 -13 -46 -5 -54 17 -17 -24 -116 -67 -161 -57 -61
-91 -83 -102 -66 -5 8 -9 10 -9 5 0 -5 -7 -3 -15 4 -13 11 -15 8 -15 -21 0
-45 -15 -70 -25 -40 -9 28 -23 27 -31 -4 -3 -14 -10 -23 -15 -20 -4 3 -13 -4
-19 -15 -6 -12 -21 -20 -35 -20 -14 0 -25 -5 -25 -10 0 -6 -15 -33 -34 -60
-26 -38 -36 -46 -39 -33 -3 10 -5 -2 -6 -27 -1 -41 -3 -43 -15 -27 -14 18 -15
17 -21 -3 -9 -30 -52 -73 -64 -65 -7 4 -11 -9 -12 -37 0 -24 -3 -37 -6 -30 -9
22 -20 13 -33 -28 -7 -23 -16 -36 -20 -30 -4 6 -19 -21 -35 -60 -25 -62 -30
-68 -41 -52 -12 15 -13 11 -14 -30 0 -51 -15 -64 -26 -23 -9 35 -21 31 -34
-12 -16 -49 -26 -59 -43 -45 -10 9 -19 1 -42 -38 -27 -46 -32 -50 -84 -60 -72
-15 -165 -62 -287 -145 -54 -36 -119 -77 -145 -90 -54 -28 -368 -109 -480
-124 -42 -6 -119 -26 -170 -44 -498 -181 -738 -271 -800 -300 -49 -23 -113
-68 -189 -132 -131 -111 -319 -254 -377 -287 -67 -39 -271 -228 -305 -282 -17
-28 -56 -85 -88 -126 -31 -41 -55 -81 -53 -87 3 -7 -5 -26 -16 -42 -27 -38
-27 -49 1 -25 26 23 19 9 -40 -73 -24 -35 -40 -63 -36 -63 4 0 13 8 21 18 13
15 13 15 3 -5 -5 -12 -15 -25 -20 -28 -6 -3 -10 -11 -10 -17 0 -6 7 -5 17 3 9
8 4 -5 -12 -29 -21 -33 -28 -56 -30 -102 -2 -35 -10 -71 -19 -85 -18 -27 -21
-39 -7 -31 5 4 7 -3 4 -15 -3 -12 0 -24 6 -29 9 -5 -3 -21 -38 -50 -56 -47
-67 -75 -26 -68 14 3 25 4 25 3 0 -1 -20 -15 -44 -30 -70 -44 -93 -111 -25
-73 17 10 27 13 24 8 -3 -6 3 -10 14 -10 27 0 27 -20 0 -54 -17 -22 -18 -26
-4 -26 25 0 29 -27 10 -75 -21 -55 -17 -87 12 -100 13 -5 22 -16 20 -25 -1
-11 5 -14 22 -12 26 4 23 -6 -13 -47 l-21 -24 22 12 c52 27 60 -4 11 -43 -35
-27 -28 -33 19 -16 26 9 25 8 -9 -21 -21 -17 -38 -35 -38 -39 0 -5 23 -2 51 6
59 18 71 13 38 -16 l-24 -20 27 6 c31 7 37 -6 13 -26 -8 -7 -15 -19 -15 -27 0
-12 7 -14 30 -10 35 8 37 -1 10 -36 -27 -34 -26 -37 18 -37 20 0 44 -5 52 -10
12 -8 9 -16 -22 -45 -25 -23 -39 -48 -44 -73 -4 -22 -23 -57 -47 -86 -38 -45
-39 -49 -16 -43 13 3 31 2 39 -3 12 -7 10 -13 -10 -35 -18 -19 -20 -24 -7 -19
22 8 22 -5 0 -21 -10 -7 -18 -26 -19 -41 -2 -41 -1 -39 -31 -75 -23 -28 -25
-32 -8 -25 42 18 65 19 65 3 0 -32 -21 -228 -36 -339 -13 -97 -14 -137 -5
-239 14 -146 18 -137 -116 -210 -120 -65 -143 -85 -183 -161 -42 -80 -64 -104
-118 -128 -99 -44 -255 -197 -349 -342 l-44 -68 6 -98 c3 -53 8 -112 11 -129
l5 -33 3350 0 3351 0 -6 423 c-4 232 -9 485 -12 563 l-6 140 -121 12 c-83 8
-135 18 -162 32 -22 11 -137 42 -255 70 -223 53 -290 77 -414 154 -39 25 -82
49 -96 54 -14 5 -48 28 -76 50 -59 47 -89 63 -176 95 -35 14 -89 38 -119 55
-30 17 -89 39 -131 48 -52 11 -79 22 -82 33 -11 35 -66 383 -62 389 12 21 113
478 164 747 60 310 76 412 88 558 l6 78 99 125 99 124 0 90 c0 77 3 94 20 113
11 12 18 27 16 33 -3 7 2 18 10 25 40 33 104 205 104 277 0 16 7 35 15 42 11
9 12 16 4 26 -7 9 -7 18 0 33 6 11 11 30 11 43 0 13 5 29 12 36 9 9 7 12 -10
12 -26 0 -28 12 -7 30 12 10 13 16 4 26 -8 10 -8 18 0 27 8 10 7 17 -1 25 -7
7 -8 12 -3 12 6 0 4 4 -4 9 -10 7 -4 15 25 35 21 14 35 26 30 26 -5 0 -2 8 7
18 10 10 14 21 11 25 -3 3 7 23 22 43 23 30 25 36 10 31 -14 -6 -17 -4 -12 8
3 8 1 27 -4 41 -7 18 -6 33 4 52 12 23 12 28 -2 38 -13 9 -13 16 -3 45 8 24 8
35 1 37 -7 3 -7 9 2 20 12 13 10 14 -9 3 -15 -7 -23 -8 -23 -1 0 5 4 10 10 10
5 0 16 14 25 30 14 27 14 30 0 30 -19 0 -19 10 0 38 13 18 23 21 59 17 38 -4
45 -1 51 18 5 17 8 18 12 7 3 -8 11 -18 16 -22 15 -9 47 10 47 28 0 11 4 12
19 5 10 -6 76 -26 147 -46 71 -20 155 -47 187 -60 57 -24 58 -24 110 -6 114
39 191 92 223 153 8 15 14 55 14 88 0 76 -2 80 -175 265 -220 236 -236 269
-234 473 3 156 2 156 -93 332 -64 117 -87 197 -69 237 6 13 11 31 11 39 0 13
-4 13 -30 -2 -16 -10 -32 -15 -35 -12 -4 3 8 33 24 67 27 52 29 61 14 61 -9 0
-25 -8 -37 -17 -19 -18 -19 -18 -3 7 21 30 22 44 2 36 -13 -4 -13 -2 -5 14 15
29 12 42 -9 35 -16 -5 -19 3 -24 92 -5 84 -35 234 -50 249 -2 3 -21 -14 -40
-36z m-2863 -4051 c-3 -6 -20 -19 -38 -30 l-31 -19 30 0 c17 0 44 -2 61 -6 22
-4 44 1 72 15 45 23 60 25 82 11 12 -7 11 -12 -5 -30 l-20 -22 28 13 c23 11
30 10 37 0 6 -11 15 -11 44 -1 19 6 39 16 42 22 4 7 14 2 24 -13 18 -23 18
-23 58 -5 27 12 50 16 70 11 21 -4 43 -1 67 11 27 13 39 14 48 5 6 -6 22 -11
35 -11 21 0 23 -2 12 -15 -23 -28 -2 -28 44 -1 61 36 97 34 64 -4 -11 -12 -10
-12 3 -2 22 17 77 -5 81 -32 5 -34 33 -31 121 12 5 2 2 -6 -6 -19 -14 -21 -14
-26 -1 -43 11 -16 24 -19 70 -17 53 2 56 1 51 -18 -3 -15 0 -21 10 -21 11 0
14 -8 11 -30 -4 -24 -1 -29 11 -26 9 3 30 8 46 12 l30 7 -30 -33 -30 -33 28 5
c23 5 27 2 22 -13 -8 -24 25 -81 42 -74 7 3 20 8 28 11 12 5 14 0 10 -22 -2
-16 -9 -60 -15 -99 -14 -85 -110 -383 -156 -482 -23 -50 -42 -77 -64 -90 l-32
-18 34 -5 33 -6 -43 -23 c-47 -24 -52 -38 -8 -21 39 14 51 13 36 -5 -10 -12
-9 -15 6 -15 15 0 12 -7 -16 -30 l-35 -29 34 -1 c30 0 32 -2 20 -17 -13 -15
-12 -15 7 -5 20 11 23 8 38 -27 21 -55 30 -131 17 -164 -7 -19 -25 -34 -56
-47 -25 -11 -73 -38 -106 -61 -63 -43 -151 -79 -191 -79 -13 0 -52 18 -88 40
-53 34 -73 41 -110 39 -73 -3 -74 -2 -161 71 -46 39 -92 70 -104 70 -32 0 -55
31 -145 195 -104 189 -106 192 -195 265 -40 33 -84 77 -97 97 -31 51 -29 126
6 216 14 37 26 81 26 97 0 16 15 89 34 162 18 73 37 157 41 186 6 48 4 56 -25
102 -26 41 -30 53 -20 65 7 8 17 15 22 15 6 0 4 -8 -3 -17 -9 -11 3 -7 31 10
46 28 76 35 64 16z m1669 -255 c2 -3 7 9 10 26 4 16 11 30 16 30 18 0 40 -31
34 -47 -4 -10 -2 -14 4 -10 8 5 12 -23 15 -86 4 -77 -1 -116 -29 -242 -44
-201 -113 -447 -130 -461 -7 -6 -10 -19 -7 -28 4 -10 -1 -25 -11 -36 -18 -19
-17 -20 5 -20 l23 0 -24 -26 c-16 -18 -20 -28 -11 -31 6 -3 12 -13 12 -24 0
-26 15 -24 35 4 16 22 16 22 31 2 56 -73 89 -190 61 -213 -8 -7 -57 -17 -108
-23 -52 -6 -113 -14 -137 -19 -32 -6 -47 -4 -57 6 -22 22 -50 162 -49 244 2
104 25 190 171 630 101 304 129 379 134 357 4 -15 9 -30 12 -33z m-2608 -332
c-6 -5 -23 -18 -39 -30 -36 -27 -27 -28 21 -2 46 25 53 18 23 -22 -14 -18 -17
-29 -9 -26 8 3 25 8 39 12 24 7 25 7 5 -9 -11 -9 -29 -23 -39 -31 -30 -21 -17
-24 51 -10 51 11 60 11 56 0 -3 -10 3 -14 19 -14 33 0 38 -7 28 -36 -9 -23 -8
-24 29 -18 30 5 39 3 44 -10 8 -19 67 -22 86 -3 11 10 13 5 7 -28 -3 -22 -6
-55 -6 -72 0 -28 -6 -36 -40 -53 -42 -22 -47 -29 -28 -48 7 -7 17 -8 29 -2 14
8 16 6 12 -10 -4 -15 0 -20 15 -20 12 0 24 -5 28 -11 3 -6 16 -8 28 -5 11 3
27 2 34 -3 13 -8 6 -41 -9 -41 -5 0 -9 -4 -9 -10 0 -6 26 -10 59 -10 l58 0 86
-85 c47 -47 115 -123 151 -169 81 -103 206 -303 206 -328 0 -26 -65 -53 -185
-78 -53 -11 -121 -27 -151 -36 -29 -8 -66 -14 -81 -12 -28 3 -28 4 -28 78 0
73 -1 75 -26 78 -25 3 -122 -26 -288 -88 -113 -41 -298 -78 -461 -90 -303 -24
-288 -21 -433 -95 -173 -87 -178 -87 -234 20 -23 44 -49 103 -58 132 -16 51
-16 55 14 201 16 83 36 165 44 184 17 41 154 198 173 198 21 0 17 -11 -18 -48
-32 -33 -32 -34 -8 -27 14 4 46 18 72 31 26 13 50 24 53 24 11 0 4 -29 -7 -33
-7 -2 -1 -2 15 0 38 6 34 -13 -8 -38 -54 -32 -38 -61 20 -39 29 11 29 11 10
-9 -18 -21 -18 -21 4 -21 12 0 38 7 58 15 32 13 34 13 23 0 -19 -23 -5 -28 29
-10 17 8 31 13 31 10 0 -3 8 -2 17 4 13 7 35 0 88 -30 39 -21 98 -45 133 -54
59 -15 65 -15 100 2 35 17 37 20 34 63 -1 25 -6 115 -11 200 -5 105 -16 190
-34 265 -14 61 -28 136 -32 167 -6 55 -5 58 28 95 30 32 37 35 51 24 9 -7 16
-20 16 -27 0 -20 8 -18 65 16 50 30 67 37 50 22z"/>
</g>
</svg>
