<?xml version="1.0" standalone="no"?>
<!DOCTYPE svg PUBLIC "-//W3C//DTD SVG 20010904//EN"
 "http://www.w3.org/TR/2001/REC-SVG-20010904/DTD/svg10.dtd">
<svg version="1.0" xmlns="http://www.w3.org/2000/svg"
 width="16.000000pt" height="16.000000pt" viewBox="0 0 16.000000 16.000000"
 preserveAspectRatio="xMidYMid meet">
<metadata>
Created by potrace 1.11, written by Peter Selinger 2001-2013
</metadata>
<g transform="translate(0.000000,16.000000) scale(0.002222,-0.002222)"
fill="#000000" stroke="none">
<path d="M6097 7159 c-21 -24 -44 -55 -51 -69 -7 -14 -17 -34 -24 -45 -44 -77
-85 -206 -117 -367 -12 -62 -149 -92 -289 -63 -87 18 -113 19 -119 3 -3 -7 -4
1 -4 17 1 20 -2 29 -11 27 -7 -1 -15 6 -19 15 -20 56 -116 163 -247 278 -38
33 -79 69 -91 80 -13 11 -36 31 -51 44 -16 13 -41 35 -56 49 -22 21 -30 23
-42 13 -18 -15 -54 -109 -64 -165 -14 -80 -5 -375 11 -404 3 -4 8 -36 11 -71
4 -36 9 -67 11 -71 2 -4 5 -25 6 -48 3 -48 11 -53 28 -16 19 42 25 20 8 -30
-17 -48 -13 -58 9 -28 10 12 9 4 -3 -32 -12 -38 -13 -50 -3 -56 8 -5 10 -15 5
-26 -5 -11 -9 -21 -9 -24 -8 -39 -40 -86 -95 -137 -55 -52 -67 -60 -73 -45 -4
9 -7 13 -8 7 0 -5 -7 -1 -15 9 -17 22 -15 28 -19 -51 -2 -42 -12 -51 -20 -18
-8 31 -30 28 -34 -3 -2 -12 -7 -20 -12 -17 -5 3 -14 -4 -20 -15 -6 -12 -21
-20 -35 -20 -15 0 -25 -6 -25 -14 0 -8 -6 -21 -14 -29 -8 -8 -24 -29 -35 -48
-16 -25 -21 -29 -21 -15 0 11 -3 16 -7 13 -3 -4 -6 -24 -5 -44 1 -35 0 -36
-13 -19 -13 18 -14 17 -20 -7 -8 -29 -51 -70 -65 -62 -6 4 -10 -12 -10 -36 0
-37 -2 -41 -13 -25 -11 15 -14 12 -26 -31 -9 -33 -15 -43 -20 -31 -4 11 -15
-7 -35 -59 -28 -72 -30 -74 -42 -51 -15 25 -17 17 -14 -44 1 -22 -3 -38 -9
-38 -6 0 -11 6 -11 14 0 7 -6 19 -14 25 -11 9 -17 2 -30 -34 -18 -46 -25 -52
-42 -35 -7 7 -20 -7 -39 -40 -27 -46 -33 -50 -83 -61 -79 -16 -134 -43 -272
-134 -69 -45 -143 -92 -165 -103 -60 -30 -386 -111 -510 -126 -33 -4 -557
-189 -848 -300 -121 -46 -190 -90 -302 -193 -29 -26 -77 -65 -109 -88 -16 -11
-33 -25 -40 -31 -24 -22 -170 -127 -205 -148 -74 -42 -280 -235 -306 -287 -10
-19 -46 -70 -80 -114 -34 -44 -60 -86 -57 -93 2 -8 -5 -27 -17 -43 -27 -37
-27 -58 0 -28 l21 24 -19 -32 c-10 -17 -33 -52 -51 -77 -18 -25 -28 -46 -22
-46 5 0 10 5 10 10 0 6 5 10 11 10 6 0 1 -12 -10 -26 -11 -15 -18 -30 -15 -35
2 -5 -2 -19 -11 -32 -8 -13 -17 -44 -19 -70 -3 -26 -8 -51 -11 -57 -3 -5 -1
-10 5 -10 6 0 5 -9 -4 -22 -8 -13 -13 -34 -12 -48 1 -14 -2 -31 -7 -38 -7 -9
-5 -11 9 -6 10 3 -5 -16 -34 -43 -59 -54 -67 -78 -25 -70 26 5 26 4 8 -9 -72
-49 -95 -70 -95 -86 0 -22 7 -22 42 -4 22 11 26 12 22 1 -4 -10 1 -12 16 -8
17 5 21 2 18 -13 -2 -11 -11 -28 -21 -39 -13 -15 -15 -21 -5 -24 33 -10 37
-21 21 -59 -24 -56 -27 -96 -9 -111 9 -7 23 -11 31 -7 13 4 14 2 5 -14 -12
-22 0 -33 25 -24 15 6 16 4 6 -14 -6 -11 -18 -28 -27 -36 -8 -9 -11 -16 -5
-16 5 0 13 5 16 10 8 13 35 13 35 -1 0 -6 -15 -25 -32 -42 -33 -30 -29 -33 27
-12 11 4 3 -7 -18 -24 -20 -18 -37 -36 -37 -41 0 -5 21 -3 48 5 65 20 72 18
39 -10 -29 -25 -21 -33 14 -15 24 13 27 -11 4 -30 -8 -7 -15 -19 -15 -27 0
-12 7 -14 30 -10 35 8 39 -5 10 -35 -25 -27 -20 -34 31 -41 22 -3 44 -8 47
-12 4 -4 -9 -21 -30 -39 -26 -23 -38 -42 -42 -71 -4 -26 -21 -57 -48 -88 -36
-44 -38 -49 -17 -42 13 4 28 8 34 9 17 2 12 -29 -9 -52 -17 -19 -18 -22 -3
-16 27 10 20 -10 -11 -28 -15 -10 -21 -18 -14 -18 18 0 7 -48 -18 -82 -26 -35
-25 -40 6 -28 50 20 49 29 29 -172 -9 -84 -17 -151 -24 -200 -9 -54 -7 -184 3
-273 9 -77 9 -77 -138 -154 -94 -49 -128 -81 -170 -160 -38 -73 -68 -103 -124
-127 -81 -33 -242 -191 -328 -320 l-54 -81 6 -84 c3 -46 6 -104 8 -129 l2 -45
3352 -3 3352 -2 -6 392 c-9 637 -11 728 -15 732 -2 2 -35 6 -74 9 -145 13
-195 20 -195 28 0 11 -103 41 -307 88 -177 41 -248 66 -318 110 -60 38 -75 47
-140 80 -33 18 -74 43 -90 57 -45 40 -96 70 -140 84 -22 6 -81 32 -131 56 -50
25 -123 52 -162 61 -39 10 -74 23 -76 30 -3 7 -8 35 -11 61 -4 26 -10 63 -15
82 -5 19 -11 56 -14 82 -4 26 -10 67 -15 90 -10 55 -8 67 39 264 22 90 42 175
44 189 3 14 7 33 10 43 3 9 8 29 11 45 3 15 7 39 10 55 3 15 8 34 10 42 3 8 7
33 10 55 3 22 7 51 10 65 45 208 92 501 99 613 5 88 3 86 129 241 l78 96 -2
89 c-1 78 1 92 20 112 23 25 28 44 9 33 -7 -4 -1 6 13 22 52 57 118 228 106
275 -3 10 1 27 9 37 8 11 14 31 13 44 -1 37 13 102 25 111 7 5 2 7 -11 4 -27
-6 -31 14 -8 33 12 10 13 16 4 27 -9 10 -9 17 -1 25 15 15 15 31 0 22 -8 -5
-9 -2 -5 9 4 10 2 17 -5 17 -7 0 -6 5 2 15 7 8 19 15 26 15 8 0 14 5 14 10 0
6 11 22 24 35 18 18 21 25 10 29 -10 4 -6 13 16 36 33 34 38 45 14 36 -12 -5
-14 -1 -9 15 6 17 4 20 -6 13 -11 -6 -12 -5 -2 7 9 11 9 19 2 26 -8 8 -7 17 1
33 9 18 9 28 -1 47 -8 15 -9 27 -4 31 6 4 11 18 13 31 2 18 -1 22 -15 17 -14
-6 -14 -4 3 15 l19 22 -22 -12 c-28 -14 -30 -5 -4 17 11 10 23 28 27 42 6 22
5 23 -10 11 -13 -11 -16 -11 -16 1 0 7 7 23 15 36 13 18 23 21 60 17 35 -3 45
-1 45 10 0 19 8 19 26 0 18 -18 54 -4 54 22 0 11 4 13 13 5 6 -5 39 -16 72
-25 115 -30 200 -56 265 -82 72 -28 66 -29 195 30 114 53 167 130 159 228 -5
49 -33 88 -181 244 -195 206 -237 280 -233 413 5 210 4 215 -88 383 -65 118
-92 209 -73 245 6 11 11 28 11 37 0 15 -3 14 -30 -1 -16 -10 -32 -15 -35 -12
-4 3 7 33 24 67 17 33 31 63 31 65 0 8 -33 -6 -55 -23 -16 -13 -17 -13 -9 -1
6 8 14 23 18 34 5 14 2 17 -9 12 -13 -4 -14 -2 -5 14 16 29 12 42 -10 35 -19
-6 -20 -2 -21 64 -1 39 -2 74 -3 79 -1 4 -5 28 -10 55 -4 26 -15 70 -25 98
l-17 52 -37 -44z m-2882 -4064 c-16 -14 -33 -25 -37 -25 -5 0 -8 -5 -8 -11 0
-5 4 -7 10 -4 18 11 50 14 50 4 0 -15 58 -10 92 7 40 21 70 26 88 14 12 -7 11
-12 -5 -31 l-20 -22 33 17 c28 14 32 15 32 1 0 -20 18 -19 64 4 38 20 38 20
43 0 7 -24 29 -24 73 -1 26 15 40 17 60 9 20 -7 35 -6 63 8 30 14 40 15 52 5
8 -7 24 -10 35 -7 23 6 24 3 10 -24 -13 -24 -13 -24 46 6 56 28 79 32 71 11
-4 -10 -1 -13 7 -10 8 3 17 1 21 -5 3 -6 15 -11 25 -11 12 0 20 -8 22 -22 5
-36 43 -33 123 11 6 3 3 -6 -6 -20 -27 -40 -5 -59 66 -59 57 0 57 0 51 -26 -5
-17 -3 -23 4 -19 19 12 30 -5 20 -31 -9 -22 -8 -25 7 -20 10 3 32 8 48 11 l30
6 -27 -25 c-34 -31 -35 -40 -4 -34 22 4 24 2 20 -21 -6 -37 28 -76 55 -62 28
15 30 14 26 -11 -2 -13 -6 -45 -10 -73 -9 -71 -28 -141 -84 -308 -66 -197
-103 -272 -141 -292 -39 -20 -39 -35 0 -29 41 7 38 -2 -10 -26 -40 -20 -56
-39 -22 -25 9 4 30 11 46 16 27 8 28 7 12 -10 -21 -23 -20 -32 2 -25 9 3 1 -8
-18 -25 l-35 -30 35 -1 35 -1 -30 -26 -30 -25 38 22 c35 21 37 21 43 3 3 -10
11 -31 17 -47 18 -49 15 -141 -7 -165 -11 -12 -27 -21 -36 -21 -9 0 -46 -19
-81 -42 -93 -60 -150 -87 -199 -93 -38 -5 -52 0 -111 36 -59 36 -75 40 -113
37 -54 -6 -89 8 -140 57 -51 49 -104 85 -127 85 -29 0 -48 28 -139 197 -86
160 -119 201 -226 290 -96 79 -110 151 -59 287 14 37 25 80 25 96 0 16 16 91
35 167 51 200 52 224 15 285 -24 39 -28 53 -19 64 6 8 17 14 23 14 6 0 2 -7
-8 -15 -32 -24 -5 -17 39 10 53 33 80 32 40 0z m1688 -241 c2 -3 7 9 10 26 7
34 18 37 42 14 13 -13 13 -19 3 -32 -11 -13 -10 -15 5 -9 15 6 17 -1 18 -56 1
-34 2 -75 4 -92 3 -33 -19 -140 -65 -320 -17 -66 -33 -127 -35 -136 -2 -9 -10
-37 -19 -63 -9 -25 -18 -60 -21 -78 -3 -18 -13 -39 -23 -46 -14 -11 -15 -14
-3 -21 11 -7 9 -14 -12 -35 l-26 -26 25 0 25 0 -21 -27 c-12 -16 -17 -29 -11
-31 6 -2 11 -12 11 -23 0 -25 16 -24 32 1 7 11 16 20 20 20 22 0 88 -146 88
-196 0 -34 -21 -44 -116 -54 -49 -6 -107 -13 -129 -16 -47 -7 -47 -7 -62 -5
-10 1 -23 25 -29 56 -1 6 -7 28 -13 50 -39 146 -18 253 156 776 102 308 129
380 134 357 4 -16 9 -31 12 -34z m-2609 -332 c-12 -9 -34 -27 -50 -39 -27 -21
-26 -21 20 2 27 14 52 23 54 20 3 -3 -4 -19 -16 -35 -24 -33 -29 -48 -9 -32 7
6 26 16 42 22 28 9 26 7 -15 -30 -30 -27 -38 -40 -25 -37 119 28 118 28 111
12 -3 -9 1 -16 9 -16 8 -1 21 -2 28 -3 13 -2 11 -34 -4 -52 -7 -8 2 -8 32 0
35 9 42 8 50 -7 12 -20 69 -23 88 -4 10 10 11 1 5 -43 -4 -30 -6 -63 -6 -73 0
-10 -14 -25 -39 -37 -41 -22 -46 -29 -27 -48 7 -7 17 -8 29 -2 14 8 16 6 12
-10 -4 -15 0 -20 16 -20 11 0 21 -5 21 -11 0 -7 11 -9 28 -6 15 3 34 2 40 -2
13 -8 6 -41 -9 -41 -5 0 -9 -5 -9 -11 0 -5 12 -9 28 -8 77 6 86 2 173 -85 89
-89 90 -90 168 -188 75 -96 192 -290 189 -313 -4 -24 -88 -60 -163 -71 -28 -3
-93 -18 -145 -33 -52 -15 -104 -26 -116 -23 -19 3 -21 10 -20 80 l1 77 -45 -1
c-42 -2 -102 -20 -240 -74 -30 -12 -63 -23 -73 -25 -10 -2 -27 -7 -37 -10 -10
-3 -27 -8 -37 -10 -10 -3 -36 -9 -58 -14 -22 -5 -56 -12 -75 -15 -19 -3 -46
-8 -60 -10 -70 -13 -113 -17 -200 -22 -219 -10 -242 -15 -382 -88 -144 -74
-164 -80 -186 -56 -29 32 -37 44 -57 85 -43 93 -63 156 -60 192 6 65 55 295
70 323 23 45 156 190 174 190 19 0 12 -17 -21 -50 -31 -31 -32 -32 -8 -25 14
4 46 18 72 31 56 28 58 29 58 9 0 -8 -8 -15 -17 -15 -15 0 -16 -2 -3 -10 10
-6 16 -6 18 0 5 13 32 13 32 0 0 -6 -16 -20 -35 -32 -54 -31 -30 -57 30 -33
l20 8 -20 -23 -20 -23 30 6 c17 2 45 10 64 16 l34 11 -21 -21 c-32 -30 -27
-34 14 -10 19 12 40 19 45 15 6 -3 16 0 24 6 11 9 20 8 42 -8 44 -31 133 -70
187 -82 41 -9 54 -8 85 7 34 17 36 20 33 63 -2 25 -4 106 -6 180 -2 104 -9
159 -29 240 -28 111 -38 170 -42 234 -2 32 4 46 29 73 35 39 66 37 66 -3 0
-23 1 -23 63 15 67 43 84 50 51 23z"/>
</g>
</svg>
